<svg width="28" height="28" viewBox="0 0 28 28" fill="none" xmlns="http://www.w3.org/2000/svg">
<path d="M8.16675 12.8335H10.5001V15.1668H8.16675V12.8335ZM8.16675 17.5002H10.5001V19.8335H8.16675V17.5002ZM12.8334 12.8335H15.1667V15.1668H12.8334V12.8335ZM12.8334 17.5002H15.1667V19.8335H12.8334V17.5002ZM17.5001 12.8335H19.8334V15.1668H17.5001V12.8335ZM17.5001 17.5002H19.8334V19.8335H17.5001V17.5002Z" fill="white"/>
<path d="M5.83333 25.6668H22.1667C23.4535 25.6668 24.5 24.6203 24.5 23.3335V7.00016C24.5 5.71333 23.4535 4.66683 22.1667 4.66683H19.8333V2.3335H17.5V4.66683H10.5V2.3335H8.16667V4.66683H5.83333C4.5465 4.66683 3.5 5.71333 3.5 7.00016V23.3335C3.5 24.6203 4.5465 25.6668 5.83333 25.6668ZM22.1667 9.3335L22.1678 23.3335H5.83333V9.3335H22.1667Z" fill="white"/>
</svg>
