<svg width="35" height="35" viewBox="0 0 35 35" fill="none" xmlns="http://www.w3.org/2000/svg">
<g clip-path="url(#clip0_401_339)">
<path d="M30.4468 0H5.70068C2.87392 0 0.57373 2.30019 0.57373 5.12695V29.873C0.57373 32.6998 2.87392 35 5.70068 35H30.4468C33.2735 35 35.5737 32.6998 35.5737 29.873V5.12695C35.5737 2.30019 33.2735 0 30.4468 0ZM18.1421 26.6602C13.0533 26.6602 8.91357 22.5204 8.91357 17.4316C8.91357 12.3429 13.0533 8.20312 18.1421 8.20312C23.2309 8.20312 27.3706 12.3429 27.3706 17.4316C27.3706 22.5204 23.2309 26.6602 18.1421 26.6602ZM28.396 10.2539C26.6998 10.2539 25.3198 8.8739 25.3198 7.17773C25.3198 5.48157 26.6998 4.10156 28.396 4.10156C30.0922 4.10156 31.4722 5.48157 31.4722 7.17773C31.4722 8.8739 30.0922 10.2539 28.396 10.2539Z" fill="white"/>
<path d="M28.396 6.15234C27.8302 6.15234 27.3706 6.6119 27.3706 7.17773C27.3706 7.74357 27.8302 8.20312 28.396 8.20312C28.9618 8.20312 29.4214 7.74357 29.4214 7.17773C29.4214 6.6119 28.9618 6.15234 28.396 6.15234Z" fill="white"/>
<path d="M18.1421 10.2539C14.1847 10.2539 10.9644 13.4743 10.9644 17.4316C10.9644 21.389 14.1847 24.6094 18.1421 24.6094C22.0995 24.6094 25.3198 21.389 25.3198 17.4316C25.3198 13.4743 22.0995 10.2539 18.1421 10.2539Z" fill="white"/>
</g>
<defs>
<clipPath id="clip0_401_339">
<rect width="35" height="35" fill="white"/>
</clipPath>
</defs>
</svg>
