<svg width="22" height="22" viewBox="0 0 22 22" fill="none" xmlns="http://www.w3.org/2000/svg">
<path d="M20.5455 10.7127C18.486 6.90545 14.8744 4.60156 10.8777 4.60156C6.88103 4.60156 3.26325 6.90545 1.22214 10.7127L1.05103 10.9999L1.20991 11.2932C3.26936 15.1005 6.88103 17.4043 10.8777 17.4043C14.8744 17.4043 18.4921 15.131 20.5455 11.2932L20.7044 10.9999L20.5455 10.7127ZM10.8777 16.1516C7.43714 16.1516 4.27769 14.2327 2.44436 10.9999C4.27769 7.76712 7.43714 5.84823 10.8777 5.84823C14.3182 5.84823 17.441 7.77323 19.3049 10.9999C17.441 14.2327 14.3121 16.1516 10.8777 16.1516V16.1516Z" fill="white"/>
<path d="M11.0551 6.82604C10.2265 6.83209 9.41825 7.08355 8.73249 7.54867C8.04672 8.01378 7.51418 8.67169 7.20211 9.4393C6.89004 10.2069 6.81245 11.0498 6.97913 11.8615C7.14581 12.6731 7.5493 13.4172 8.13862 13.9997C8.72794 14.5822 9.47667 14.977 10.2902 15.1342C11.1038 15.2914 11.9457 15.204 12.7096 14.8831C13.4735 14.5621 14.1252 14.0219 14.5823 13.3308C15.0394 12.6396 15.2814 11.8285 15.2778 10.9999C15.2754 10.4484 15.1642 9.90269 14.9506 9.39418C14.7369 8.88568 14.425 8.42433 14.0327 8.03659C13.6404 7.64885 13.1755 7.34233 12.6645 7.1346C12.1535 6.92687 11.6066 6.82201 11.0551 6.82604V6.82604ZM11.0551 13.9883C10.4698 13.9822 9.89932 13.8034 9.41534 13.4742C8.93136 13.145 8.55544 12.6802 8.33479 12.138C8.11414 11.5959 8.0586 11.0006 8.17515 10.427C8.29169 9.85344 8.57513 9.32707 8.98986 8.91403C9.40458 8.50099 9.93211 8.21971 10.5062 8.1055C11.0803 7.9913 11.6753 8.04926 12.2165 8.27212C12.7577 8.49498 13.221 8.8728 13.5483 9.35812C13.8755 9.84344 14.052 10.4146 14.0556 10.9999C14.0572 11.3938 13.9807 11.7842 13.8303 12.1483C13.6799 12.5124 13.4588 12.843 13.1797 13.121C12.9005 13.3989 12.569 13.6187 12.2043 13.7676C11.8396 13.9165 11.449 13.9915 11.0551 13.9883V13.9883Z" fill="white"/>
</svg>
